# xmcd
#
# Track frame offsets:
# 150
# 6351
# 12083
# 16074
# 19572
# 24209
# 31466
# 39810
# 44256
# 48849
# 55997
# 61273
# 67439
# 73400
# 78109
# 81584
# 87907
# 94339
# 103005
# 108652
# 115350
# 120649
# 126591
# 132929
# 136478
#
# Disc length: 1848 seconds
#
#
# Revision: 0
# Processed by: cddbd v1.5.1PL0 Copyright (c) Steve Scherf et al.
# Submitted via: FreeRIP 2.931 
#
DISCID=58073619
DTITLE=Wilson Douglas - Wiloson Douglas
DYEAR=1973
DGENRE=country
TTITLE0=Dusty Miller
TTITLE1=Little Rose
TTITLE2=Birdie
TTITLE3=BillyIntheLowground
TTITLE4=Wild Horse
TTITLE5=West Fork Girls
TTITLE6=Elzic's Farewell
TTITLE7=Forked Horn Deer
TTITLE8=Blue EyedGirl
TTITLE9=Miller'sReel
TTITLE10=Whistling Rufus
TTITLE11=Brushy Run
TTITLE12=One More River to Cross
TTITLE13=Walkin'in the Parlor
TTITLE14=Shaking Down the Acorns
TTITLE15=OldMother Flanagan
TTITLE16=Paddy on the Pike (low)
TTITLE17=Old ChristmasMorning-I Paddy on the Pike (high)
TTITLE18=Rocky Road to Dublin
TTITLE19=Yew Piney Mountain
TTITLE20=Boatin' Up the Sandy
TTITLE21=Camp Chase
TTITLE22=Old Christmas Morning II
TTITLE23=Shelvin' Rock
TTITLE24=Flat Foot
EXTD=
EXTT0=
EXTT1=
EXTT2=
EXTT3=
EXTT4=
EXTT5=
EXTT6=
EXTT7=
EXTT8=
EXTT9=
EXTT10=
EXTT11=
EXTT12=
EXTT13=
EXTT14=
EXTT15=
EXTT16=
EXTT17=
EXTT18=
EXTT19=
EXTT20=
EXTT21=
EXTT22=
EXTT23=
EXTT24=
PLAYORDER=
